<?xml version="1.0" encoding="utf-8"?>
<svg version="1.1" xmlns:xlink="http://www.w3.org/1999/xlink" width="25px" height="25px" xmlns="http://www.w3.org/2000/svg">
  <g transform="matrix(1 0 0 1 -95 -107 )">
    <path d="M 109.5 107.5  L 105.5 107.5  L 105.5 117.5  L 95.5 117.5  L 95.5 121.5  L 105.5 121.5  L 105.5 131.5  L 109.5 131.5  L 109.5 121.5  L 119.5 121.5  L 119.5 117.5  L 109.5 117.5  L 109.5 107.5  Z " fill-rule="nonzero" fill="#ffffff" stroke="none" />
    <path d="M 109.5 107.5  L 105.5 107.5  L 105.5 117.5  L 95.5 117.5  L 95.5 121.5  L 105.5 121.5  L 105.5 131.5  L 109.5 131.5  L 109.5 121.5  L 119.5 121.5  L 119.5 117.5  L 109.5 117.5  L 109.5 107.5  Z " stroke-width="1" stroke="#797979" fill="none" />
  </g>
</svg>