<?xml version="1.0" encoding="utf-8"?>
<svg version="1.1" xmlns:xlink="http://www.w3.org/1999/xlink" width="10px" height="11px" xmlns="http://www.w3.org/2000/svg">
  <g transform="matrix(1 0 0 1 -273 -27 )">
    <path d="M 278 27  C 280.8 27  283 29.42  283 32.5  C 283 35.58  280.8 38  278 38  C 275.2 38  273 35.58  273 32.5  C 273 29.42  275.2 27  278 27  Z " fill-rule="nonzero" fill="#ffffff" stroke="none" />
    <path d="M 278 27.5  C 280.52 27.5  282.5 29.7  282.5 32.5  C 282.5 35.3  280.52 37.5  278 37.5  C 275.48 37.5  273.5 35.3  273.5 32.5  C 273.5 29.7  275.48 27.5  278 27.5  Z " stroke-width="1" stroke="#797979" fill="none" />
  </g>
</svg>