<?xml version="1.0" encoding="utf-8"?>
<svg version="1.1" xmlns:xlink="http://www.w3.org/1999/xlink" width="12px" height="10px" xmlns="http://www.w3.org/2000/svg">
  <g transform="matrix(1 0 0 1 -322 -8 )">
    <path d="M 328 8  C 331.36 8  334 10.2  334 13  C 334 15.8  331.36 18  328 18  C 324.64 18  322 15.8  322 13  C 322 10.2  324.64 8  328 8  Z " fill-rule="nonzero" fill="#ffffff" stroke="none" />
    <path d="M 328 8.5  C 331.08 8.5  333.5 10.48  333.5 13  C 333.5 15.52  331.08 17.5  328 17.5  C 324.92 17.5  322.5 15.52  322.5 13  C 322.5 10.48  324.92 8.5  328 8.5  Z " stroke-width="1" stroke="#797979" fill="none" />
  </g>
</svg>