<?xml version="1.0" encoding="utf-8"?>
<svg version="1.1" xmlns:xlink="http://www.w3.org/1999/xlink" width="15px" height="18px" xmlns="http://www.w3.org/2000/svg">
  <g transform="matrix(1 0 0 1 -20 -303 )">
    <path d="M 27.5 305.577817459305  C 26 303.5  24.5 303.5  23.75 303.5  C 22.45 303.5  20.5 305.127586206897  20.5 308.22  C 20.5 315.224376395203  27.5 320.349529855108  27.5 320.349529855108  C 27.5 320.349529855108  34.5 315.224376395203  34.5 308.22  C 34.5 305.127586206897  32.55 303.5  31.25 303.5  C 30.5 303.5  29 303.5  27.5 305.577817459305  Z " fill-rule="nonzero" fill="#ffffff" stroke="none" />
    <path d="M 27.5 304.8  C 26 303  24.5 303  23.75 303  C 22.25 303  20 304.8  20 308.22  C 20 315.6  27.5 321  27.5 321  C 27.5 321  35 315.6  35 308.22  C 35 304.8  32.75 303  31.25 303  C 30.5 303  29 303  27.5 304.8  Z M 27.5 306.35563491861  C 29 304  30.5 304  31.25 304  C 32.35 304  34 305.455172413793  34 308.22  C 34 314.848752790406  27.5 319.699059710216  27.5 319.699059710216  C 27.5 319.699059710216  21 314.848752790406  21 308.22  C 21 305.455172413793  22.65 304  23.75 304  C 24.5 304  26 304  27.5 306.35563491861  Z " fill-rule="nonzero" fill="#797979" stroke="none" />
  </g>
</svg>