<?xml version="1.0" encoding="utf-8"?>
<svg version="1.1" xmlns:xlink="http://www.w3.org/1999/xlink" width="63px" height="60px" xmlns="http://www.w3.org/2000/svg">
  <g transform="matrix(1 0 0 1 -27 -150 )">
    <path d="M 58.5 150  C 76.14 150  90 163.2  90 180  C 90 196.8  76.14 210  58.5 210  C 40.86 210  27 196.8  27 180  C 27 163.2  40.86 150  58.5 150  Z " fill-rule="nonzero" fill="#ffffff" stroke="none" />
    <path d="M 58.5 150.5  C 75.86 150.5  89.5 163.48  89.5 180  C 89.5 196.52  75.86 209.5  58.5 209.5  C 41.14 209.5  27.5 196.52  27.5 180  C 27.5 163.48  41.14 150.5  58.5 150.5  Z " stroke-width="1" stroke="#797979" fill="none" />
  </g>
</svg>