<?xml version="1.0" encoding="utf-8"?>
<svg version="1.1" xmlns:xlink="http://www.w3.org/1999/xlink" width="18px" height="21px" xmlns="http://www.w3.org/2000/svg">
  <g transform="matrix(1 0 0 1 -217 -15 )">
    <path d="M 225.5 15.5  C 227.124 15.5  228.4 16.776  228.4 18.4  C 228.4 20.024  227.124 21.3  225.5 21.3  C 223.876 21.3  222.6 20.024  222.6 18.4  C 222.6 16.776  223.876 15.5  225.5 15.5  Z " fill-rule="nonzero" fill="#000000" stroke="none" />
    <path d="M 225.5 15.5  C 227.124 15.5  228.4 16.776  228.4 18.4  C 228.4 20.024  227.124 21.3  225.5 21.3  C 223.876 21.3  222.6 20.024  222.6 18.4  C 222.6 16.776  223.876 15.5  225.5 15.5  Z " stroke-width="1" stroke="#000000" fill="none" />
    <path d="M 217 25.2  L 234 25.2  M 225.5 21.8  L 225.5 28.6  M 218.7 35  L 225.5 28.6  M 225.5 28.6  L 232.3 35  " stroke-width="1" stroke="#000000" fill="none" />
  </g>
</svg>