<?xml version="1.0" encoding="utf-8"?>
<svg version="1.1" xmlns:xlink="http://www.w3.org/1999/xlink" width="99px" height="79px" xmlns="http://www.w3.org/2000/svg">
  <g>
    <path d="M 0 0  L 99 0  L 99 79  L 0 79  L 0 0  " fill-rule="nonzero" fill="#cccccc" stroke="none" />
    <path d="M 6 6  L 93 6  L 93 73  L 6 73  L 6 6  " fill-rule="nonzero" fill="#ffffff" stroke="none" />
    <path d="M 57.405 23.7  C 54.087 23.7  51.48 21.093  51.48 17.775  C 51.48 14.457  54.087 11.85  57.405 11.85  C 60.723 11.85  63.33 14.457  63.33 17.775  C 63.33 21.093  60.723 23.7  57.405 23.7  " fill-rule="nonzero" fill="#cccccc" stroke="none" />
    <path d="M 8 71  L 8 36.35  L 28.75 20.6  L 57.8 40.8363636363636  L 74.4 30.05  L 91 40.8363636363636  L 91 71  L 8 71  " fill-rule="nonzero" fill="#169bd5" stroke="none" />
  </g>
</svg>