<?xml version="1.0" encoding="utf-8"?>
<svg version="1.1" xmlns:xlink="http://www.w3.org/1999/xlink" width="13px" height="12px" xmlns="http://www.w3.org/2000/svg">
  <g transform="matrix(1 0 0 1 -13 -8 )">
    <path d="M 19.5 8  C 23.14 8  26 10.64  26 14  C 26 17.36  23.14 20  19.5 20  C 15.86 20  13 17.36  13 14  C 13 10.64  15.86 8  19.5 8  Z " fill-rule="nonzero" fill="#000000" stroke="none" />
    <path d="M 19.5 8.5  C 22.86 8.5  25.5 10.92  25.5 14  C 25.5 17.08  22.86 19.5  19.5 19.5  C 16.14 19.5  13.5 17.08  13.5 14  C 13.5 10.92  16.14 8.5  19.5 8.5  Z " stroke-width="1" stroke="#000000" fill="none" />
  </g>
</svg>