<?xml version="1.0" encoding="utf-8"?>
<svg version="1.1" xmlns:xlink="http://www.w3.org/1999/xlink" width="7px" height="11px" xmlns="http://www.w3.org/2000/svg">
  <g transform="matrix(1 0 0 1 -268 -22 )">
    <path d="M 271.5 22  C 273.46 22  275 24.42  275 27.5  C 275 30.58  273.46 33  271.5 33  C 269.54 33  268 30.58  268 27.5  C 268 24.42  269.54 22  271.5 22  Z " fill-rule="nonzero" fill="#ffffff" stroke="none" />
    <path d="M 271.5 22.5  C 273.18 22.5  274.5 24.7  274.5 27.5  C 274.5 30.3  273.18 32.5  271.5 32.5  C 269.82 32.5  268.5 30.3  268.5 27.5  C 268.5 24.7  269.82 22.5  271.5 22.5  Z " stroke-width="1" stroke="#797979" fill="none" />
  </g>
</svg>