<?xml version="1.0" encoding="utf-8"?>
<svg version="1.1" xmlns:xlink="http://www.w3.org/1999/xlink" width="30px" height="30px" xmlns="http://www.w3.org/2000/svg">
  <g transform="matrix(1 0 0 1 -10 -15 )">
    <path d="M 10 15  L 40 15  L 40 45  L 10 45  L 10 15  " fill-rule="nonzero" fill="#cccccc" stroke="none" />
    <path d="M 12 17  L 38 17  L 38 43  L 12 43  L 12 17  " fill-rule="nonzero" fill="#ffffff" stroke="none" />
    <path d="M 27.85 24  C 26.59 24  25.6 23.01  25.6 21.75  C 25.6 20.49  26.59 19.5  27.85 19.5  C 29.11 19.5  30.1 20.49  30.1 21.75  C 30.1 23.01  29.11 24  27.85 24  " fill-rule="nonzero" fill="#cccccc" stroke="none" />
    <path d="M 13 42  L 13 28.8  L 19 22.8  L 27.4 27.6  L 32.2 26.4  L 37 27.6  L 37 42  L 13 42  " fill-rule="nonzero" fill="#169bd5" stroke="none" />
  </g>
</svg>