<?xml version="1.0" encoding="utf-8"?>
<svg version="1.1" xmlns:xlink="http://www.w3.org/1999/xlink" width="30px" height="30px" xmlns="http://www.w3.org/2000/svg">
  <g transform="matrix(1 0 0 1 -280 -15 )">
    <path d="M 295 18.7071067811865  C 292 15.5  289 15.5  287.5 15.5  C 284.7 15.5  280.5 18.3275862068966  280.5 23.7  C 280.5 35.6475571970105  295 44.3896722192133  295 44.3896722192133  C 295 44.3896722192133  309.5 35.6475571970105  309.5 23.7  C 309.5 18.3275862068966  305.3 15.5  302.5 15.5  C 301 15.5  298 15.5  295 18.7071067811865  Z " fill-rule="nonzero" fill="#ffffff" stroke="none" />
    <path d="M 295 18  C 292 15  289 15  287.5 15  C 284.5 15  280 18  280 23.7  C 280 36  295 45  295 45  C 295 45  310 36  310 23.7  C 310 18  305.5 15  302.5 15  C 301 15  298 15  295 18  Z M 295 19.4142135623731  C 298 16  301 16  302.5 16  C 305.1 16  309 18.6551724137931  309 23.7  C 309 35.295114394021  295 43.7793444384266  295 43.7793444384266  C 295 43.7793444384266  281 35.295114394021  281 23.7  C 281 18.6551724137931  284.9 16  287.5 16  C 289 16  292 16  295 19.4142135623731  Z " fill-rule="nonzero" fill="#797979" stroke="none" />
  </g>
</svg>