<?xml version="1.0" encoding="utf-8"?>
<svg version="1.1" xmlns:xlink="http://www.w3.org/1999/xlink" width="20px" height="20px" xmlns="http://www.w3.org/2000/svg">
  <g transform="matrix(1 0 0 1 -289 38 )">
    <path d="M 300.5 -37.5  L 297.5 -37.5  L 297.5 -29.5  L 289.5 -29.5  L 289.5 -26.5  L 297.5 -26.5  L 297.5 -18.5  L 300.5 -18.5  L 300.5 -26.5  L 308.5 -26.5  L 308.5 -29.5  L 300.5 -29.5  L 300.5 -37.5  Z " fill-rule="nonzero" fill="#ffffff" stroke="none" />
    <path d="M 300.5 -37.5  L 297.5 -37.5  L 297.5 -29.5  L 289.5 -29.5  L 289.5 -26.5  L 297.5 -26.5  L 297.5 -18.5  L 300.5 -18.5  L 300.5 -26.5  L 308.5 -26.5  L 308.5 -29.5  L 300.5 -29.5  L 300.5 -37.5  Z " stroke-width="1" stroke="#797979" fill="none" />
  </g>
</svg>