<?xml version="1.0" encoding="utf-8"?>
<svg version="1.1" xmlns:xlink="http://www.w3.org/1999/xlink" width="300px" height="283px" xmlns="http://www.w3.org/2000/svg">
  <g transform="matrix(1 0 0 1 -30 -66 )">
    <path d="M 30 66  L 330 66  L 330 349  L 30 349  L 30 66  " fill-rule="nonzero" fill="#cccccc" stroke="none" />
    <path d="M 50 86  L 310 86  L 310 329  L 50 329  L 50 86  " fill-rule="nonzero" fill="#ffffff" stroke="none" />
    <path d="M 207.225 150.9  C 195.339 150.9  186 141.561  186 129.675  C 186 117.789  195.339 108.45  207.225 108.45  C 219.111 108.45  228.45 117.789  228.45 129.675  C 228.45 141.561  219.111 150.9  207.225 150.9  " fill-rule="nonzero" fill="#cccccc" stroke="none" />
    <path d="M 57 322  L 57 196.05  L 118.5 138.8  L 204.6 192.386  L 253.8 173.15  L 303 192.386  L 303 322  L 57 322  " fill-rule="nonzero" fill="#169bd5" stroke="none" />
  </g>
</svg>