<?xml version="1.0" encoding="utf-8"?>
<svg version="1.1" xmlns:xlink="http://www.w3.org/1999/xlink" width="84px" height="72px" xmlns="http://www.w3.org/2000/svg">
  <g transform="matrix(1 0 0 1 -141 -399 )">
    <path d="M 183 399  C 206.52 399  225 414.84  225 435  C 225 455.16  206.52 471  183 471  C 159.48 471  141 455.16  141 435  C 141 414.84  159.48 399  183 399  Z " fill-rule="nonzero" fill="#ffffff" stroke="none" />
    <path d="M 183 399.5  C 206.24 399.5  224.5 415.12  224.5 435  C 224.5 454.88  206.24 470.5  183 470.5  C 159.76 470.5  141.5 454.88  141.5 435  C 141.5 415.12  159.76 399.5  183 399.5  Z " stroke-width="1" stroke="#000000" fill="none" />
  </g>
</svg>