<?xml version="1.0" encoding="utf-8"?>
<svg version="1.1" xmlns:xlink="http://www.w3.org/1999/xlink" width="7px" height="9px" xmlns="http://www.w3.org/2000/svg">
  <g transform="matrix(1 0 0 1 -323 -440 )">
    <path d="M 326.5 440  C 328.46 440  330 441.98  330 444.5  C 330 447.02  328.46 449  326.5 449  C 324.54 449  323 447.02  323 444.5  C 323 441.98  324.54 440  326.5 440  Z " fill-rule="nonzero" fill="#ffffff" stroke="none" />
    <path d="M 326.5 440.5  C 328.18 440.5  329.5 442.26  329.5 444.5  C 329.5 446.74  328.18 448.5  326.5 448.5  C 324.82 448.5  323.5 446.74  323.5 444.5  C 323.5 442.26  324.82 440.5  326.5 440.5  Z " stroke-width="1" stroke="#797979" fill="none" />
  </g>
</svg>