<?xml version="1.0" encoding="utf-8"?>
<svg version="1.1" xmlns:xlink="http://www.w3.org/1999/xlink" width="171px" height="131px" xmlns="http://www.w3.org/2000/svg">
  <g transform="matrix(1 0 0 1 -86 -126 )">
    <path d="M 86 126  L 257 126  L 257 257  L 86 257  L 86 126  " fill-rule="nonzero" fill="#cccccc" stroke="none" />
    <path d="M 95 135  L 248 135  L 248 248  L 95 248  L 95 135  " fill-rule="nonzero" fill="#ffffff" stroke="none" />
    <path d="M 184.745 165.3  C 179.243 165.3  174.92 160.977  174.92 155.475  C 174.92 149.973  179.243 145.65  184.745 145.65  C 190.247 145.65  194.57 149.973  194.57 155.475  C 194.57 160.977  190.247 165.3  184.745 165.3  " fill-rule="nonzero" fill="#cccccc" stroke="none" />
    <path d="M 99 245  L 99 186.7  L 135.5 160.2  L 186.6 196.277192982456  L 215.8 176.1  L 245 196.277192982456  L 245 245  L 99 245  " fill-rule="nonzero" fill="#169bd5" stroke="none" />
  </g>
</svg>